# xmcd
#
# Track frame offsets:
#	150
#	6621
#	27995
#	55813
#	74636
#	106843
#	124596
#	156880
#	178781
#	202680
#	235810
#
# Disc length: 3360 seconds
# Revision: 0
# Processed by: cddbd v1.5.2PL0 Copyright (c) Steve Scherf et al.
# Submitted via: dBpowerAMP V12.0
#
DISCID=910d1e0b
DTITLE=Skyfire - Esoteric
DYEAR=2009
DGENRE=Metal
TTITLE0=Deathlike Overture (Intro)
TTITLE1=Esoteric
TTITLE2=Rise and Decay
TTITLE3=Let the Old World Burn
TTITLE4=Darkness Descending
TTITLE5=Seclusion
TTITLE6=Misery's Supremacy
TTITLE7=Under a Pitch Black Sky
TTITLE8=Linger in Doubt
TTITLE9=The Legacy of the Defeated
TTITLE10=Within Reach
EXTD=
EXTT0=
EXTT1=
EXTT2=
EXTT3=
EXTT4=
EXTT5=
EXTT6=
EXTT7=
EXTT8=
EXTT9=
EXTT10=
PLAYORDER=
